name Walk8.mot
datacolumns 19
datarows 20
range 1.76500000 1.78400000
endheader

                time	   L_ground_force_vx	   L_ground_force_vy	   L_ground_force_vz	   L_ground_force_px	   L_ground_force_py	   L_ground_force_pz	   R_ground_force_vx	   R_ground_force_vy	   R_ground_force_vz	   R_ground_force_px	   R_ground_force_py	   R_ground_force_pz	   L_ground_torque_x	   L_ground_torque_y	   L_ground_torque_z	   R_ground_torque_x	   R_ground_torque_y	   R_ground_torque_z	
          1.76500000	        -11.22952574	         53.88700034	         -7.44383638	         -0.12248399	          0.00000000	         -0.00266404	          0.00000000	         -0.00000000	         -0.00000000	         -0.00000000	          0.00000000	         -0.00000000	          0.00000000	          0.16060603	          0.00000000	          0.00000000	         -0.00000000	          0.00000000	
          1.76600000	        -12.09705358	         59.68318564	         -8.13082870	         -0.12986307	          0.00000000	         -0.00281452	          0.00000000	         -0.00000000	         -0.00000000	         -0.00000000	          0.00000000	         -0.00000000	          0.00000000	          0.17867153	          0.00000000	          0.00000000	         -0.00000000	          0.00000000	
          1.76700000	        -12.99523676	         65.77149552	         -8.84808022	         -0.13739153	          0.00000000	         -0.00296735	          0.00000000	         -0.00000000	         -0.00000000	         -0.00000000	          0.00000000	         -0.00000000	          0.00000000	          0.19767786	          0.00000000	          0.00000000	         -0.00000000	          0.00000000	
          1.76800000	        -13.92321449	         72.15393152	         -9.59544059	         -0.14505216	          0.00000000	         -0.00312213	          0.00000000	         -0.00000000	         -0.00000000	         -0.00000000	          0.00000000	         -0.00000000	          0.00000000	          0.21763397	          0.00000000	          0.00000000	         -0.00000000	          0.00000000	
          1.76900000	        -14.87992296	         78.83146642	        -10.37262116	         -0.15282561	          0.00000000	         -0.00327840	          0.00000000	         -0.00000000	         -0.00000000	         -0.00000000	          0.00000000	         -0.00000000	          0.00000000	          0.23854569	          0.00000000	          0.00000000	         -0.00000000	          0.00000000	
          1.77000000	        -15.86408088	         85.80394470	        -11.17918327	         -0.16069024	          0.00000000	         -0.00343565	          0.00000000	         -0.00000000	         -0.00000000	         -0.00000000	          0.00000000	         -0.00000000	          0.00000000	          0.26041546	          0.00000000	          0.00000000	         -0.00000000	          0.00000000	
          1.77100000	        -16.87417449	         93.06997827	        -12.01452619	         -0.16862206	          0.00000000	         -0.00359333	          0.00000000	         -0.00000000	         -0.00000000	         -0.00000000	          0.00000000	         -0.00000000	          0.00000000	          0.28324199	          0.00000000	          0.00000000	         -0.00000000	          0.00000000	
          1.77200000	        -17.90844228	        100.62683770	        -12.87787447	         -0.17659456	          0.00000000	         -0.00375082	          0.00000000	         -0.00000000	         -0.00000000	         -0.00000000	          0.00000000	         -0.00000000	          0.00000000	          0.30701991	          0.00000000	          0.00000000	         -0.00000000	          0.00000000	
          1.77300000	        -18.96486789	        108.47035231	        -13.76826838	         -0.18457893	          0.00000000	         -0.00390746	          0.00000000	         -0.00000000	         -0.00000000	         -0.00000000	          0.00000000	         -0.00000000	          0.00000000	          0.33173946	          0.00000000	          0.00000000	         -0.00000000	          0.00000000	
          1.77400000	        -20.04120325	        116.59485260	        -14.68456574	         -0.19254539	          0.00000000	         -0.00406258	          0.00000000	         -0.00000000	         -0.00000000	         -0.00000000	          0.00000000	         -0.00000000	          0.00000000	          0.35738625	          0.00000000	          0.00000000	         -0.00000000	          0.00000000	
          1.77500000	        -21.13502697	        124.99316210	        -15.62545699	         -0.20046518	          0.00000000	         -0.00421556	          0.00000000	         -0.00000000	         -0.00000000	         -0.00000000	          0.00000000	         -0.00000000	          0.00000000	          0.38394105	          0.00000000	          0.00000000	         -0.00000000	          0.00000000	
          1.77600000	        -22.24381381	        133.65659961	        -16.58948346	         -0.20831178	          0.00000000	         -0.00436584	          0.00000000	         -0.00000000	         -0.00000000	         -0.00000000	          0.00000000	         -0.00000000	          0.00000000	          0.41137961	          0.00000000	          0.00000000	         -0.00000000	          0.00000000	
          1.77700000	        -23.36500022	        142.57496886	        -17.57505205	         -0.21606121	          0.00000000	         -0.00451295	          0.00000000	         -0.00000000	         -0.00000000	         -0.00000000	          0.00000000	         -0.00000000	          0.00000000	          0.43967248	          0.00000000	          0.00000000	         -0.00000000	          0.00000000	
          1.77800000	        -24.49605173	        151.73654769	        -18.58044781	         -0.22369182	          0.00000000	         -0.00465646	          0.00000000	         -0.00000000	         -0.00000000	         -0.00000000	          0.00000000	         -0.00000000	          0.00000000	          0.46878515	          0.00000000	          0.00000000	         -0.00000000	          0.00000000	
          1.77900000	        -25.63453717	        161.12809062	        -19.60384537	         -0.23118422	          0.00000000	         -0.00479602	          0.00000000	         -0.00000000	         -0.00000000	         -0.00000000	          0.00000000	         -0.00000000	          0.00000000	          0.49867840	          0.00000000	          0.00000000	         -0.00000000	          0.00000000	
          1.78000000	        -26.77820796	        170.73485327	        -20.64331801	         -0.23852114	          0.00000000	         -0.00493132	          0.00000000	         -0.00000000	         -0.00000000	         -0.00000000	          0.00000000	         -0.00000000	          0.00000000	          0.52930887	          0.00000000	          0.00000000	         -0.00000000	          0.00000000	
          1.78100000	        -27.92507865	        180.54064489	        -21.69684362	         -0.24568733	          0.00000000	         -0.00506213	          0.00000000	         -0.00000000	         -0.00000000	         -0.00000000	          0.00000000	         -0.00000000	          0.00000000	          0.56062952	          0.00000000	          0.00000000	         -0.00000000	          0.00000000	
          1.78200000	        -29.07350275	        190.52791267	        -22.76230633	         -0.25266943	          0.00000000	         -0.00518825	          0.00000000	         -0.00000000	         -0.00000000	         -0.00000000	          0.00000000	         -0.00000000	          0.00000000	          0.59259001	          0.00000000	          0.00000000	         -0.00000000	          0.00000000	
          1.78300000	        -30.22223722	        200.67785784	        -23.83749387	         -0.25945587	          0.00000000	         -0.00530955	          0.00000000	         -0.00000000	         -0.00000000	         -0.00000000	          0.00000000	         -0.00000000	          0.00000000	          0.62513704	          0.00000000	          0.00000000	         -0.00000000	          0.00000000	
          1.78400000	        -31.37049006	        210.97058200	        -24.92009103	         -0.26603676	          0.00000000	         -0.00542596	          0.00000000	         -0.00000000	         -0.00000000	         -0.00000000	          0.00000000	         -0.00000000	          0.00000000	          0.65821469	          0.00000000	          0.00000000	         -0.00000000	          0.00000000	
